<?xml version="1.0" encoding="UTF-8"?>
<!DOCTYPE svg PUBLIC "-//W3C//DTD SVG 1.1//EN" "http://www.w3.org/Graphics/SVG/1.1/DTD/svg11.dtd">
<svg xmlns="http://www.w3.org/2000/svg" version="1.1" width="512px" height="512px" style="shape-rendering:geometricPrecision; text-rendering:geometricPrecision; image-rendering:optimizeQuality; fill-rule:evenodd; clip-rule:evenodd" xmlns:xlink="http://www.w3.org/1999/xlink">
<g><path style="opacity:0.995" fill="#323232" d="M 150.5,75.5 C 179.531,74.8995 205.531,83.3995 228.5,101C 237.874,108.361 246.874,116.195 255.5,124.5C 275.379,103.46 299.046,88.2929 326.5,79C 372.192,69.7087 411.359,81.542 444,114.5C 470.051,148.405 478.384,186.405 469,228.5C 461.663,256.848 448.33,281.848 429,303.5C 412.16,321.006 394.66,337.84 376.5,354C 355.209,370.956 334.209,388.289 313.5,406C 297.833,420.333 282.833,435.333 268.5,451C 259.833,457 251.167,457 242.5,451C 228.5,435.667 213.833,421 198.5,407C 166.913,381.417 135.913,355.084 105.5,328C 82.0057,306.826 63.5057,281.992 50,253.5C 32.3845,209.764 35.0512,167.43 58,126.5C 80.7585,95.0339 111.592,78.0339 150.5,75.5 Z"/></g>
</svg>
