<?xml version="1.0" standalone="no"?>
<!DOCTYPE svg PUBLIC "-//W3C//DTD SVG 20010904//EN"
 "http://www.w3.org/TR/2001/REC-SVG-20010904/DTD/svg10.dtd">
<svg version="1.0" xmlns="http://www.w3.org/2000/svg"
 width="512.000000pt" height="512.000000pt" viewBox="0 0 512.000000 512.000000"
 preserveAspectRatio="xMidYMid meet">

<g transform="translate(0.000000,512.000000) scale(0.100000,-0.100000)"
fill="#000000" stroke="none">
<path d="M1301 3682 l-1301 -1146 24 -30 c12 -17 47 -46 77 -64 51 -32 58 -33
134 -30 69 4 90 9 151 41 53 28 329 256 1140 942 588 498 1072 905 1076 905 4
0 450 -397 991 -882 558 -500 1010 -898 1043 -918 116 -70 251 -97 335 -68 51
17 104 53 128 86 l21 30 -832 753 c-458 415 -1024 928 -1259 1141 l-427 386
-1301 -1146z"/>
<path d="M4010 4005 l0 -304 245 -208 c135 -114 250 -209 255 -211 6 -2 10
189 10 512 l0 516 -255 0 -255 0 0 -305z"/>
<path d="M1642 3182 l-941 -787 0 -1013 c-1 -1115 -4 -1058 60 -1081 22 -8
231 -11 679 -11 l647 0 6 412 c4 227 7 483 7 568 0 136 2 159 20 187 40 66 51
68 385 68 165 0 317 -4 337 -8 46 -10 96 -51 114 -94 11 -26 14 -140 14 -578
l0 -545 650 0 c718 0 692 -2 727 63 17 30 18 98 21 1027 l2 996 -881 784
c-485 432 -888 788 -894 792 -8 5 -364 -287 -953 -780z"/>
</g>
</svg>
