<?xml version="1.0" encoding="UTF-8"?>
<!DOCTYPE svg PUBLIC "-//W3C//DTD SVG 1.1//EN" "http://www.w3.org/Graphics/SVG/1.1/DTD/svg11.dtd">
<svg xmlns="http://www.w3.org/2000/svg" version="1.1" width="512px" height="512px" style="shape-rendering:geometricPrecision; text-rendering:geometricPrecision; image-rendering:optimizeQuality; fill-rule:evenodd; clip-rule:evenodd" xmlns:xlink="http://www.w3.org/1999/xlink">
<g><path style="opacity:0.994" fill="#000000" d="M 42.5,-0.5 C 47.5,-0.5 52.5,-0.5 57.5,-0.5C 65.514,1.49693 73.1807,4.6636 80.5,9C 178.833,76.6667 277.167,144.333 375.5,212C 400.56,234.617 404.06,260.117 386,288.5C 380.802,294.033 375.302,299.2 369.5,304C 272.833,370.333 176.167,436.667 79.5,503C 73.0804,506.718 66.4137,509.551 59.5,511.5C 53.5,511.5 47.5,511.5 41.5,511.5C 24.302,504.863 14.4687,492.197 12,473.5C 11.3333,328.167 11.3333,182.833 12,37.5C 14.011,18.0155 24.1777,5.3488 42.5,-0.5 Z"/></g>
<g><path style="opacity:0.983" fill="#000000" d="M 452.5,-0.5 C 461.5,-0.5 470.5,-0.5 479.5,-0.5C 489.577,3.0805 496.077,10.0805 499,20.5C 499.667,177.167 499.667,333.833 499,490.5C 496.077,500.92 489.577,507.92 479.5,511.5C 470.833,511.5 462.167,511.5 453.5,511.5C 439.964,507.121 432.464,497.787 431,483.5C 430.333,331.167 430.333,178.833 431,26.5C 432.87,13.1444 440.037,4.14438 452.5,-0.5 Z"/></g>
</svg>
