<?xml version="1.0" standalone="no"?>
<!DOCTYPE svg PUBLIC "-//W3C//DTD SVG 20010904//EN"
 "http://www.w3.org/TR/2001/REC-SVG-20010904/DTD/svg10.dtd">
<svg version="1.0" xmlns="http://www.w3.org/2000/svg"
 width="512.000000pt" height="512.000000pt" viewBox="0 0 512.000000 512.000000"
 preserveAspectRatio="xMidYMid meet">

<g transform="translate(0.000000,512.000000) scale(0.100000,-0.100000)"
fill="#000000" stroke="none">
<path d="M1204 5111 c-95 -23 -195 -107 -237 -199 -22 -47 -22 -54 -25 -685
l-3 -637 -37 19 c-125 64 -314 75 -459 27 -251 -82 -424 -307 -440 -571 -25
-427 378 -761 791 -655 180 46 336 170 415 330 73 148 71 117 71 1128 l0 904
48 -39 c169 -140 376 -223 556 -223 72 0 115 22 154 80 32 47 28 139 -7 189
-29 40 -91 70 -146 71 -119 1 -248 63 -388 187 -76 66 -196 97 -293 74z m-430
-1815 c105 -51 161 -144 161 -266 0 -91 -24 -149 -85 -210 -60 -60 -119 -84
-210 -84 -91 -1 -148 22 -210 84 -194 194 -45 524 228 506 40 -2 81 -13 116
-30z"/>
<path d="M2475 5106 c-40 -17 -82 -67 -96 -116 -23 -75 27 -170 104 -199 19
-8 420 -11 1273 -11 1361 0 1284 -3 1337 59 24 29 27 40 27 111 0 71 -3 82
-27 111 -53 62 25 59 -1340 59 -1015 -1 -1254 -3 -1278 -14z"/>
<path d="M2503 3919 c-96 -19 -154 -130 -118 -224 19 -52 61 -90 113 -105 52
-14 2463 -14 2515 1 20 5 53 26 72 45 34 34 35 36 35 119 0 83 -1 85 -35 119
-19 20 -49 38 -67 41 -43 8 -2478 12 -2515 4z"/>
<path d="M2498 2709 c-56 -29 -88 -82 -88 -147 0 -64 18 -102 67 -139 l36 -28
1229 -3 c1369 -3 1270 -7 1325 65 20 26 28 49 30 91 5 75 -24 128 -87 160
l-44 22 -1216 0 c-1188 -1 -1216 -1 -1252 -21z"/>
<path d="M103 1529 c-18 -5 -49 -25 -68 -45 -34 -34 -35 -36 -35 -115 0 -93
16 -125 74 -153 31 -15 240 -16 2486 -16 2246 0 2455 1 2486 16 58 28 74 60
74 153 0 78 -1 81 -35 115 -19 19 -52 40 -72 45 -49 14 -4863 13 -4910 0z"/>
<path d="M85 326 c-17 -7 -43 -28 -58 -45 -24 -29 -27 -40 -27 -111 0 -71 3
-82 27 -111 54 -63 -137 -59 2533 -59 2670 0 2479 -4 2533 59 24 29 27 40 27
111 0 71 -3 82 -27 111 -54 63 137 59 -2535 59 -2009 -1 -2448 -3 -2473 -14z"/>
</g>
</svg>
