<?xml version="1.0" standalone="no"?>
<!DOCTYPE svg PUBLIC "-//W3C//DTD SVG 20010904//EN"
 "http://www.w3.org/TR/2001/REC-SVG-20010904/DTD/svg10.dtd">
<svg version="1.0" xmlns="http://www.w3.org/2000/svg"
 width="512.000000pt" height="512.000000pt" viewBox="0 0 512.000000 512.000000"
 preserveAspectRatio="xMidYMid meet">

<g transform="translate(0.000000,512.000000) scale(0.100000,-0.100000)"
fill="#000000" stroke="none">
<path d="M2365 5114 c-27 -2 -111 -13 -185 -24 -710 -105 -1348 -511 -1752
-1115 -202 -302 -340 -661 -400 -1040 -32 -201 -32 -549 0 -750 115 -729 511
-1352 1117 -1757 302 -202 661 -340 1040 -400 201 -32 549 -32 750 0 284 45
512 117 764 243 501 248 902 649 1150 1150 126 252 198 480 243 764 32 201 32
549 0 750 -115 729 -511 1352 -1117 1757 -299 200 -662 340 -1030 398 -127 20
-459 34 -580 24z m1785 -2554 c0 -3 -574 -292 -1275 -643 l-1275 -637 0 1280
0 1280 1275 -637 c701 -351 1275 -640 1275 -643z"/>
</g>
</svg>
