<?xml version="1.0" encoding="UTF-8"?>
<!DOCTYPE svg PUBLIC "-//W3C//DTD SVG 1.1//EN" "http://www.w3.org/Graphics/SVG/1.1/DTD/svg11.dtd">
<svg xmlns="http://www.w3.org/2000/svg" version="1.1" width="512px" height="512px" style="shape-rendering:geometricPrecision; text-rendering:geometricPrecision; image-rendering:optimizeQuality; fill-rule:evenodd; clip-rule:evenodd" xmlns:xlink="http://www.w3.org/1999/xlink">
<g><path style="opacity:0.985" fill="#000000" d="M 33.5,-0.5 C 42.8333,-0.5 52.1667,-0.5 61.5,-0.5C 72.0484,2.87993 79.2151,9.87993 83,20.5C 83.6667,177.167 83.6667,333.833 83,490.5C 79.2236,501.111 72.0569,508.111 61.5,511.5C 52.1667,511.5 42.8333,511.5 33.5,511.5C 19.9738,507.129 12.4738,497.795 11,483.5C 10.3333,331.167 10.3333,178.833 11,26.5C 12.9272,12.7483 20.4272,3.74826 33.5,-0.5 Z"/></g>
<g><path style="opacity:0.992" fill="#000000" d="M 455.5,-0.5 C 460.5,-0.5 465.5,-0.5 470.5,-0.5C 485.611,4.28637 494.777,14.6197 498,30.5C 499.023,36.793 499.689,43.1263 500,49.5C 500.667,187.167 500.667,324.833 500,462.5C 501.17,479.674 495.67,494.174 483.5,506C 479.983,508.326 476.317,510.16 472.5,511.5C 466.833,511.5 461.167,511.5 455.5,511.5C 444.665,508.584 434.665,503.75 425.5,497C 330.007,430.753 234.341,364.753 138.5,299C 112.43,273.974 110.264,247.14 132,218.5C 135.465,216.037 138.631,213.204 141.5,210C 240.326,141.753 339.326,73.753 438.5,6C 444.16,3.50734 449.826,1.34067 455.5,-0.5 Z"/></g>
</svg>
