<?xml version="1.0" encoding="UTF-8"?>
<!DOCTYPE svg PUBLIC "-//W3C//DTD SVG 1.1//EN" "http://www.w3.org/Graphics/SVG/1.1/DTD/svg11.dtd">
<svg xmlns="http://www.w3.org/2000/svg" version="1.1" width="512px" height="512px" style="shape-rendering:geometricPrecision; text-rendering:geometricPrecision; image-rendering:optimizeQuality; fill-rule:evenodd; clip-rule:evenodd" xmlns:xlink="http://www.w3.org/1999/xlink">
<g><path style="opacity:0.975" fill="#000000" d="M 241.5,39.5 C 324.568,37.1976 389.735,69.8642 437,137.5C 471.13,192.741 479.796,251.741 463,314.5C 455.821,326.834 445.321,331.001 431.5,327C 419.361,320.887 414.527,311.053 417,297.5C 431.747,229.945 413.581,173.112 362.5,127C 311.518,87.572 255.518,78.572 194.5,100C 183.231,104.633 172.564,110.3 162.5,117C 169.186,118.743 175.853,120.743 182.5,123C 191.232,129.539 193.732,138.039 190,148.5C 184.509,157.827 176.342,161.66 165.5,160C 141.825,157.406 118.158,154.74 94.5,152C 89.1894,150.563 86.3561,147.063 86,141.5C 83.2068,117.694 80.7068,93.8612 78.5,70C 78.8105,52.024 87.8105,44.6906 105.5,48C 112.097,50.6669 116.263,55.5003 118,62.5C 119.159,70.2983 120.826,77.965 123,85.5C 158.029,58.6568 197.529,43.3235 241.5,39.5 Z"/></g>
<g><path style="opacity:0.975" fill="#000000" d="M 64.5,182.5 C 86.1361,181.636 95.9694,191.969 94,213.5C 79.0631,283.74 98.8964,341.907 153.5,388C 203.738,424.034 258.072,431.701 316.5,411C 327.769,406.367 338.436,400.7 348.5,394C 341.814,392.257 335.147,390.257 328.5,388C 319.768,381.461 317.268,372.961 321,362.5C 325.153,354.833 331.653,350.833 340.5,350.5C 365.856,353.136 391.189,355.969 416.5,359C 421.811,360.437 424.644,363.937 425,369.5C 427.793,393.306 430.293,417.139 432.5,441C 432.189,458.976 423.189,466.309 405.5,463C 398.903,460.333 394.737,455.5 393,448.5C 391.841,440.702 390.174,433.035 388,425.5C 330.733,468.287 267.233,481.121 197.5,464C 117.446,439.28 66.6131,386.446 45,305.5C 37.4164,271.09 37.7498,236.757 46,202.5C 48.6139,192.391 54.7806,185.725 64.5,182.5 Z"/></g>
</svg>
