<?xml version="1.0" standalone="no"?>
<!DOCTYPE svg PUBLIC "-//W3C//DTD SVG 20010904//EN"
 "http://www.w3.org/TR/2001/REC-SVG-20010904/DTD/svg10.dtd">
<svg version="1.0" xmlns="http://www.w3.org/2000/svg"
 width="512.000000pt" height="512.000000pt" viewBox="0 0 512.000000 512.000000"
 preserveAspectRatio="xMidYMid meet">

<g transform="translate(0.000000,512.000000) scale(0.100000,-0.100000)"
fill="#000000" stroke="none">
<path d="M4571 4114 c-36 -30 -51 -76 -39 -119 4 -17 44 -66 93 -115 47 -47
85 -89 85 -93 0 -4 -28 -7 -62 -7 -78 0 -224 -15 -343 -35 -471 -78 -910 -276
-1290 -580 -55 -44 -200 -179 -322 -299 l-223 -219 -223 219 c-122 120 -265
254 -317 296 -482 390 -1109 618 -1697 618 l-115 0 -34 -34 c-39 -39 -45 -86
-19 -136 24 -47 57 -57 210 -64 570 -28 1067 -214 1503 -565 54 -44 195 -174
313 -290 l214 -211 -156 -153 c-237 -233 -433 -372 -714 -508 -223 -108 -481
-185 -747 -225 -57 -8 -206 -17 -333 -20 -126 -3 -244 -7 -261 -10 -70 -10
-110 -92 -78 -159 31 -66 44 -68 348 -62 172 3 309 11 374 21 415 64 788 204
1122 423 175 115 270 193 448 367 l162 159 163 -159 c177 -174 272 -252 447
-367 335 -219 711 -361 1122 -423 57 -8 194 -18 306 -21 111 -3 202 -8 202
-12 0 -3 -38 -44 -85 -91 -49 -49 -89 -98 -93 -115 -21 -74 36 -145 115 -145
l46 0 198 197 c109 108 206 212 215 231 33 70 22 87 -199 309 -174 174 -207
202 -241 209 -72 13 -138 -39 -138 -110 0 -48 14 -70 106 -165 l81 -84 -180 7
c-392 13 -720 93 -1050 256 -276 135 -461 267 -694 497 l-156 153 214 211
c118 116 259 246 313 290 424 341 899 524 1463 564 l90 6 -81 -83 c-92 -94
-106 -116 -106 -164 0 -71 66 -123 138 -110 34 7 67 35 241 209 221 222 232
239 199 309 -9 19 -106 123 -215 231 l-198 197 -46 0 c-34 0 -53 -6 -76 -26z"/>
</g>
</svg>
